# AST/ASF file generated using VICON BodyLanguage
# -----------------------------------------------
:version 1.10
:name VICON
:units
  mass 1.0
  length 0.45
  angle deg
:documentation
   .ast/.asf automatically generated from VICON data using
   VICON BodyBuilder and BodyLanguage model FoxedUp or BRILLIANT.MOD
:root
   order TX TY TZ RX RY RZ
   axis XYZ
   position 0 0 0  
   orientation 0 0 0 
:bonedata
  begin
     id 1 
     name lhipjoint
     direction 0.602128 -0.715006 0.355257 
     length 2.21237 
     axis 0 0 0  XYZ
  end
  begin
     id 2 
     name lfemur
     direction 0.34202 -0.939693 0  
     length 6.71649  
     axis 0 0 20  XYZ
    dof rx ry rz
    limits (-160.0 20.0)
           (-70.0 70.0)
           (-60.0 70.0)
  end
  begin
     id 3 
     name ltibia
     direction 0.34202 -0.939693 0   
     length 6.97123   
     axis 0 0 20   XYZ
    dof rx
    limits (-10.0 170.0)
  end
  begin
     id 4 
     name lfoot
     direction 0.0655697 -0.180151 0.981451   
     length 1.80924   
     axis -90 7.62852e-016 20   XYZ
    dof rx rz
    limits (-45.0 90.0)
           (-70.0 20.0)
  end
  begin
     id 5 
     name ltoes
     direction 1.53545e-011 -4.21827e-011 1   
     length 0.916331   
     axis -90 7.62852e-016 20   XYZ
    dof rx
    limits (-90.0 20.0)
  end
  begin
     id 6 
     name rhipjoint
     direction -0.625414 -0.698792 0.347201   
     length 2.2637  
     axis 0 0 0  XYZ 
  end
  begin
     id 7 
     name rfemur
     direction -0.34202 -0.939693 0   
     length 7.07595   
     axis 0 0 -20   XYZ
    dof rx ry rz
    limits (-160.0 20.0)
           (-70.0 70.0)
           (-70.0 60.0)
  end
  begin
     id 8 
     name rtibia
     direction -0.34202 -0.939693 0   
     length 7.22924   
     axis 0 0 -20   XYZ
    dof rx
    limits (-10.0 170.0)
 end
 begin
     id 9 
     name rfoot
     direction -0.0766747 -0.210662 0.974547   
     length 1.98482  
     axis -90 -7.62852e-016 -20   XYZ
    dof rx rz
    limits (-45.0 90.0)
           (-20.0 70.0)
  end
  begin
     id 10 
     name rtoes
     direction -1.53532e-011 -4.21867e-011 1   
     length 0.999842   
     axis -90 -7.62852e-016 -20   XYZ
    dof rx
    limits (-90.0 20.0)
  end
  begin
     id 11 
     name lowerback
     direction -0.0224668 0.997354 -0.0691422   
     length 2.09945   
     axis 0 0 0   XYZ
    dof rx ry rz
    limits (-20.0 45.0)
           (-30.0 30.0)
           (-30.0 30.0)
  end
  begin
     id 12 
     name upperback
     direction 0.0134698 0.998451 -0.0539888   
     length 2.09758   
     axis 0 0 0   XYZ
    dof rx ry rz
    limits (-20.0 45.0)
           (-30.0 30.0)
           (-30.0 30.0)
  end
  begin
     id 13 
     name thorax
     direction 0.0241905 0.99948 -0.0213333   
     length 2.10428   
     axis 0 0 0   XYZ
    dof rx ry rz
    limits (-20.0 45.0)
           (-30.0 30.0)
           (-30.0 30.0)
  end
  begin
     id 14 
     name lowerneck
     direction -0.00866847 0.995978 0.0891737   
     length 1.3959   
     axis 0 0 0   XYZ
    dof rx ry rz
    limits (-20.0 45.0)
           (-30.0 30.0)
           (-30.0 30.0)
  end
  begin
     id 15 
     name upperneck
     direction 0.0680679 0.992203 0.104404   
     length 1.39452   
     axis 0 0 0   XYZ
    dof rx ry rz
    limits (-20.0 45.0)
           (-30.0 30.0)
           (-30.0 30.0)
  end
  begin
     id 16
     name head
     direction 0.0242216 0.999358 0.0264054  
     length 1.40433  
     axis 0 0 0   XYZ
    dof rx ry rz
    limits (-20.0 45.0)
           (-30.0 30.0)
           (-30.0 30.0)
  end
  begin
     id 17 
     name lclavicle
     direction 0.929368 0.362991 -0.0671771  
     length 3.04887  
     axis 0 0 0   XYZ
    dof ry rz
    limits (-20.0 10.0)
           (0.0 20.0)
  end
  begin
     id 18 
     name lhumerus
     direction 1 -4.48967e-011 -7.13741e-028   
     length 4.77195   
     axis -180 -30 -90   XYZ
    dof rx ry rz
    limits (-60.0 90.0)
           (-90.0 90.0)
           (-90.0 90.0)
  end
  begin
     id 19
     name lradius
     direction 1 -4.48977e-011 3.60404e-027   
     length 2.98444   
     axis -180 -30 -90   XYZ
    dof rx
    limits (-10.0 170.0)
  end
  begin
     id 20
     name lwrist
     direction 1 -4.48997e-011 7.54877e-027   
     length 1.49222   
     axis -7.18178e-015 90 90   XYZ
    dof ry
    limits (-180.0 0.0)
 end
  begin
     id 21 
     name lhand
     direction 1 -4.489e-011 1.51105e-026   
     length 0.992285   
     axis -9.63605e-015 90 90   XYZ
    dof rx rz
    limits (-90.0 90.0)
           (-45.0 45.0)
  end
  begin
     id 22 
     name lfingers
     direction 1 -4.48998e-011 3.01948e-026   
     length 0.800006   
     axis -1.92718e-014 90 90   XYZ
    dof rx
    limits (0.0 90.0)
  end
  begin
     id 23
     name lthumb
     direction 0.707107 -6.34881e-011 0.707107   
     length 1.14865   
     axis -90 45 -3.53137e-014   XYZ
    dof rx rz
    limits (-45.0 45.0)
           (-45.0 45.0)
  end
  begin
     id 24 
     name rclavicle
     direction -0.945672 0.324529 0.0196374   
     length 3.4236  
     axis 0 0 0   XYZ 
    dof ry rz
    limits (-10.0 20.0)
           (-20.0 0.0)
  end
  begin
     id 25 
     name rhumerus
     direction -1 -4.4896e-011 1.02757e-029  
     length 4.62052   
     axis -180 30 90   XYZ
    dof rx ry rz
    limits (-90.0 60.0)
           (-90.0 90.0)
           (-90.0 90.0)
  end
  begin
     id 26 
     name rradius
     direction -1 -4.48982e-011 3.85962e-027   
     length 2.95332   
     axis -180 30 90   XYZ
    dof rx
    limits (-10.0 170.0)
  end
  begin
     id 27 
     name rwrist
     direction -1 -4.48961e-011 7.55118e-027   
     length 1.47666   
     axis -7.18178e-015 -90 -90   XYZ
    dof ry
    limits (-180.0 0.0)
  end
  begin
     id 28
     name rhand
     direction -1 -4.48984e-011 1.50994e-026   
     length 0.990956   
     axis -9.63605e-015 -90 -90   XYZ
    dof rx rz
    limits (-90.0 90.0)
           (-45.0 45.0)
  end
  begin
     id 29
     name rfingers
     direction -1 -4.4892e-011 3.02158e-026   
     length 0.798934   
     axis -1.92718e-014 -90 -90   XYZ
    dof rx
    limits (0.0 90.0)
  end
  begin
     id 30
     name rthumb
     direction -0.707107 -6.34916e-011 0.707107   
     length 1.14711   
     axis -90 -45 3.53137e-014   XYZ
    dof rx rz
    limits (-45.0 45.0)
           (-45.0 45.0)
  end
:hierarchy
  begin
    root lhipjoint rhipjoint lowerback
    lhipjoint lfemur
    lfemur ltibia
    ltibia lfoot
    lfoot ltoes
    rhipjoint rfemur
    rfemur rtibia
    rtibia rfoot
    rfoot rtoes
    lowerback upperback
    upperback thorax
    thorax lowerneck lclavicle rclavicle
    lowerneck upperneck
    upperneck head
    lclavicle lhumerus
    lhumerus lradius
    lradius lwrist
    lwrist lhand lthumb
    lhand lfingers
    rclavicle rhumerus
    rhumerus rradius
    rradius rwrist
    rwrist rhand rthumb
    rhand rfingers
  end

#!OML:ASF H:\ManfredObstacles\Project 1\Capture day 1\Session 1\Male.ASF
:FULLY-SPECIFIED
:DEGREES
44
root 10.4286 15.9602 33.5882 -174.033 -13.6384 -181.503
lowerback -9.26131 -2.52059 -6.25374
upperback 2.64078 -2.70903 1.35008
thorax 8.39931 -1.68242 4.51356
lowerneck 2.48306 -3.61304 -6.26972
upperneck -8.6468 -4.68731 10.5602
head -2.543 -2.66033 4.35211
rclavicle -1.91579e-014 2.0276e-014
rhumerus -36.0524 -26.2116 -72.7984
rradius 24.0658
rwrist 35.9357
rhand -7.72542 -10.7112
rfingers 7.12502
rthumb 18.173 -39.8823
lclavicle -1.91579e-014 2.0276e-014
lhumerus -25.2298 11.0148 85.491
lradius 19.8368
lwrist -31.1974
lhand -9.20863 7.4083
lfingers 7.12502
lthumb 16.7456 36.7061
rfemur -29.0526 -1.82729 12.0479
rtibia 23.9373
rfoot -12.1908 -3.9376
rtoes 42.8192
lfemur -8.44819 0.155028 -23.8512
ltibia 20.976
lfoot -13.3081 -8.89054
ltoes -3.12884
45
root 10.4418 15.9633 33.5808 -173.972 -13.6654 -181.382
lowerback -9.2033 -2.64165 -6.22171
upperback 2.55025 -2.88537 1.42281
thorax 8.29282 -1.76318 4.54592
lowerneck 2.48085 -3.73718 -6.1114
upperneck -8.70873 -4.85249 10.5035
head -2.55258 -2.74815 4.31252
rclavicle -5.52373e-014 4.17448e-015
rhumerus -35.6973 -25.7729 -73.1824
rradius 23.9723
rwrist 35.8028
rhand -7.63592 -10.4573
rfingers 7.12502
rthumb 18.2591 -39.6203
lclavicle -5.52373e-014 4.17448e-015
lhumerus -24.9367 10.6115 85.8874
lradius 20.242
lwrist -30.3159
lhand -9.08331 7.56505
lfingers 7.12502
lthumb 16.8662 36.8526
rfemur -29.1024 -1.75464 12.1941
rtibia 23.9367
rfoot -12.2215 -3.90811
rtoes 42.9905
lfemur -8.52487 -0.207083 -23.6712
ltibia 20.9903
lfoot -13.434 -8.53773
ltoes -2.4924
46
root 10.4475 15.9664 33.5645 -173.915 -13.5653 -181.322
lowerback -9.21399 -2.66569 -6.04294
upperback 2.42517 -2.93423 1.35659
thorax 8.1545 -1.76803 4.36714
lowerneck 2.87361 -3.92945 -5.54507
upperneck -9.02506 -5.10557 10.1264
head -2.71762 -2.89107 4.12662
rclavicle 1.963e-014 4.17448e-015
rhumerus -35.6367 -25.489 -73.5596
rradius 24.0112
rwrist 35.6843
rhand -7.42548 -10.3179
rfingers 7.12502
rthumb 18.4616 -39.4619
lclavicle 1.963e-014 4.17448e-015
lhumerus -24.7647 10.0188 86.1456
lradius 20.583
lwrist -29.6266
lhand -9.04422 7.61039
lfingers 7.12502
lthumb 16.9039 36.8947
rfemur -29.1595 -1.69763 12.2848
rtibia 23.9793
rfoot -12.2472 -3.76972
rtoes 42.6725
lfemur -8.50553 -0.353028 -23.5822
ltibia 20.9626
lfoot -13.5427 -8.3661
ltoes -1.57972
47
root 10.4504 15.9681 33.546 -173.871 -13.3034 -181.416
lowerback -9.281 -2.62048 -6.01449
upperback 2.35685 -2.86525 1.25177
thorax 8.10244 -1.72614 4.24982
lowerneck 3.12753 -4.06807 -5.11166
upperneck -9.27101 -5.28363 9.89732
head -2.83841 -2.99547 4.00249
rclavicle 7.55382e-015 -2.5842e-015
rhumerus -35.5783 -25.3697 -73.8559
rradius 24.0615
rwrist 35.6072
rhand -7.14713 -10.2493
rfingers 7.12502
rthumb 18.7293 -39.3677
lclavicle 7.55382e-015 -2.5842e-015
lhumerus -24.6935 9.06342 86.5146
lradius 21.0827
lwrist -28.8102
lhand -9.00516 7.49245
lfingers 7.12502
lthumb 16.9415 36.7736
rfemur -29.2396 -1.69038 12.2499
rtibia 24.0402
rfoot -12.0784 -3.511
rtoes 42.4499
lfemur -8.41284 -0.232159 -23.6729
ltibia 20.9073
lfoot -13.6266 -8.28276
ltoes -1.13172
48
root 10.4552 15.9671 33.5279 -173.839 -13.0055 -181.627
lowerback -9.38229 -2.59175 -6.19234
upperback 2.36534 -2.79239 1.1751
thorax 8.16728 -1.69895 4.27742
lowerneck 3.16251 -4.06925 -4.95587
upperneck -9.44887 -5.27841 9.90865
head -2.90168 -3.00727 3.98619
rclavicle 1.89591e-014 5.96354e-016
rhumerus -35.376 -25.1786 -74.1448
rradius 24.0399
rwrist 35.4105
rhand -6.86899 -10.3102
rfingers 7.12502
rthumb 18.9968 -39.4025
lclavicle 1.89591e-014 5.96354e-016
lhumerus -24.5436 8.10056 86.9759
lradius 21.5362
lwrist -27.9817
lhand -8.93966 6.63547
lfingers 7.12502
lthumb 17.0045 35.9112
rfemur -29.2946 -1.68152 12.1091
rtibia 24.0996
rfoot -11.8641 -3.24844
rtoes 42.6657
lfemur -8.27785 -0.0725049 -23.8938
ltibia 20.8377
lfoot -13.7451 -8.14142
ltoes -1.38181
49
root 10.4593 15.9674 33.5098 -173.814 -12.7264 -181.618
lowerback -9.58055 -2.63937 -6.26302
upperback 2.53827 -2.84164 1.2969
thorax 8.48817 -1.74412 4.42988
lowerneck 2.55973 -4.00246 -5.02786
upperneck -9.41067 -5.19657 9.87387
head -2.79526 -2.95642 3.96827
rclavicle -5.79954e-014 -6.16232e-015
rhumerus -34.6622 -24.852 -74.4424
rradius 23.8816
rwrist 35.4032
rhand -6.58224 -10.2233
rfingers 7.12502
rthumb 19.2726 -39.2883
lclavicle -5.79954e-014 -6.16232e-015
lhumerus -23.9515 7.71391 87.5332
lradius 21.8082
lwrist -27.4576
lhand -8.89924 6.10496
lfingers 7.12502
lthumb 17.0434 35.3773
rfemur -29.3893 -1.64263 12.2122
rtibia 24.1804
rfoot -11.7462 -3.02561
rtoes 42.8131
lfemur -8.18044 0.0160351 -23.8864
ltibia 20.7373
lfoot -13.8518 -7.96651
ltoes -1.46939
50
root 10.4637 15.9667 33.4928 -173.787 -12.4952 -181.625
lowerback -9.67272 -2.68149 -6.30413
upperback 2.77407 -2.893 1.39047
thorax 8.81438 -1.79109 4.5373
lowerneck 1.4342 -3.99945 -5.10369
upperneck -8.81397 -5.24813 9.57223
head -2.71255 -2.92485 4.26556
rclavicle 3.69243e-014 -1.13307e-014
rhumerus -33.8875 -24.8911 -74.6894
rradius 23.7627
rwrist 35.7142
rhand -6.32544 -9.87059
rfingers 7.12502
rthumb 19.5195 -38.9108
lclavicle 3.69243e-014 -1.13307e-014
lhumerus -23.1661 7.56413 87.9635
lradius 21.9461
lwrist -27.3239
lhand -8.75238 6.84761
lfingers 7.12502
lthumb 17.1848 36.1077
rfemur -29.4918 -1.69976 12.3213
rtibia 24.2791
rfoot -11.6718 -2.77225
rtoes 42.8717
lfemur -8.08031 -0.0379434 -23.8958
ltibia 20.6173
lfoot -13.9835 -7.67899
ltoes -1.7035
51
root 10.4672 15.963 33.4747 -173.793 -12.3692 -181.849
lowerback -9.55981 -2.70195 -6.42811
upperback 2.8142 -2.90555 1.30942
thorax 8.79707 -1.80228 4.52056
lowerneck 0.947486 -3.97797 -5.02738
upperneck -8.58225 -5.21984 9.63126
head -2.54543 -2.9068 4.24287
rclavicle -2.48481e-014 2.52457e-014
rhumerus -33.7383 -24.9845 -74.8411
rradius 23.7866
rwrist 35.7783
rhand -6.08874 -9.58604
rfingers 7.12502
rthumb 19.747 -38.603
lclavicle -2.48481e-014 2.52457e-014
lhumerus -22.9597 7.10974 88.1836
lradius 22.1804
lwrist -27.1111
lhand -8.51193 7.23061
lfingers 7.12502
lthumb 17.4162 36.4704
rfemur -29.4807 -1.91543 12.2039
rtibia 24.3769
rfoot -11.5765 -2.4865
rtoes 43.123
lfemur -7.87033 -0.174239 -24.1279
ltibia 20.4861
lfoot -14.1091 -7.42728
ltoes -1.91335
52
root 10.466 15.9621 33.4592 -173.746 -12.2956 -182.004
lowerback -9.50523 -2.72522 -6.37257
upperback 2.73579 -2.93901 1.19754
thorax 8.67365 -1.80573 4.36581
lowerneck 1.00994 -3.88115 -4.85261
upperneck -8.57661 -5.08835 9.63594
head -2.56996 -2.84965 4.21246
rclavicle 3.87879e-014 1.78906e-015
rhumerus -33.7939 -24.9379 -74.974
rradius 23.8027
rwrist 35.7082
rhand -5.84904 -9.4259
rfingers 7.12502
rthumb 19.9775 -38.419
lclavicle 3.87879e-014 1.78906e-015
lhumerus -23.1195 6.4664 88.3341
lradius 22.5341
lwrist -26.7325
lhand -8.23223 7.33458
lfingers 7.12502
lthumb 17.6854 36.5503
rfemur -29.5282 -2.2963 12.1826
rtibia 24.4639
rfoot -11.3382 -2.15954
rtoes 42.9248
lfemur -7.74839 -0.3039 -24.2986
ltibia 20.3661
lfoot -14.1613 -7.2542
ltoes -1.72381
53
root 10.4773 15.9636 33.4388 -173.871 -12.0225 -181.956
lowerback -9.41773 -2.674 -6.30962
upperback 2.78271 -2.88147 1.16161
thorax 8.66026 -1.77465 4.30402
lowerneck 0.928186 -3.85048 -4.56198
upperneck -8.58558 -5.0479 9.53036
head -2.56931 -2.83688 4.11584
rclavicle 4.42047e-014 1.07344e-014
rhumerus -33.7392 -24.9771 -75.1472
rradius 23.8329
rwrist 35.7953
rhand -5.66751 -9.30019
rfingers 7.12502
rthumb 20.152 -38.275
lclavicle 4.42047e-014 1.07344e-014
lhumerus -23.139 5.97371 88.4483
lradius 22.7806
lwrist -26.5438
lhand -8.09106 7.49504
lfingers 7.12502
lthumb 17.8212 36.6985
rfemur -29.4449 -2.21988 12.3542
rtibia 24.5623
rfoot -11.2117 -1.99253
rtoes 43.0637
lfemur -7.46251 -0.0861539 -24.2071
ltibia 20.242
lfoot -14.2158 -7.18782
ltoes -1.99157
54
root 10.4821 15.9661 33.4231 -173.864 -11.7469 -181.732
lowerback -9.48702 -2.62161 -6.08758
upperback 2.80053 -2.8421 1.25593
thorax 8.70685 -1.74839 4.28462
lowerneck 0.867866 -3.84061 -4.38332
upperneck -8.62226 -5.03734 9.36199
head -2.57841 -2.83204 4.02075
rclavicle 1.70706e-014 -1.07344e-014
rhumerus -33.6763 -24.9471 -75.1841
rradius 23.884
rwrist 35.8435
rhand -5.67304 -9.29183
rfingers 7.12502
rthumb 20.1466 -38.2672
lclavicle 1.70706e-014 -1.07344e-014
lhumerus -23.0978 5.68913 88.68
lradius 22.939
lwrist -26.3927
lhand -8.35393 7.33988
lfingers 7.12502
lthumb 17.5683 36.5661
rfemur -29.5744 -2.17014 12.6947
rtibia 24.6485
rfoot -11.0299 -1.79094
rtoes 43.1002
lfemur -7.40583 0.151671 -23.9599
ltibia 20.1343
lfoot -14.2663 -7.08017
ltoes -2.6816
55
root 10.4833 15.9684 33.4082 -173.755 -11.51 -181.568
lowerback -9.65283 -2.58708 -5.86781
upperback 2.78885 -2.81899 1.32662
thorax 8.7785 -1.72882 4.23565
lowerneck 0.85616 -3.78 -4.40441
upperneck -8.65934 -4.95599 9.40728
head -2.59397 -2.79469 4.04132
rclavicle -2.01269e-015 -7.95139e-016
rhumerus -33.6025 -25.112 -75.114
rradius 23.8387
rwrist 35.9496
rhand -5.75171 -9.31266
rfingers 7.12502
rthumb 20.071 -38.296
lclavicle -2.01269e-015 -7.95139e-016
lhumerus -23.0792 5.55488 88.8658
lradius 22.9997
lwrist -26.3057
lhand -8.3475 7.71225
lfingers 7.12502
lthumb 17.5745 36.9379
rfemur -29.8043 -2.1381 12.9507
rtibia 24.7269
rfoot -10.8755 -1.64703
rtoes 42.9604
lfemur -7.44176 0.164524 -23.7966
ltibia 20.0261
lfoot -14.3441 -6.85381
ltoes -2.60151
56
root 10.4853 15.9694 33.3909 -173.674 -11.3445 -181.522
lowerback -9.74825 -2.57297 -5.69932
upperback 2.79969 -2.81384 1.30143
thorax 8.83365 -1.71778 4.11106
lowerneck 0.655296 -3.73086 -4.48308
upperneck -8.53166 -4.88985 9.63831
head -2.51266 -2.76463 4.12579
rclavicle -3.97569e-015 5.76476e-015
rhumerus -33.5236 -25.4575 -75.0861
rradius 23.7682
rwrist 36.0704
rhand -5.78037 -9.19118
rfingers 7.12502
rthumb 20.0435 -38.1774
lclavicle -3.97569e-015 5.76476e-015
lhumerus -23.0761 5.6186 88.8867
lradius 22.9365
lwrist -26.4416
lhand -7.94335 8.65923
lfingers 7.12502
lthumb 17.9633 37.8497
rfemur -29.9383 -2.10044 13.0634
rtibia 24.7938
rfoot -10.847 -1.5724
rtoes 42.7163
lfemur -7.38906 -0.137833 -23.7574
ltibia 19.9239
lfoot -14.4979 -6.45845
ltoes -2.06824
57
root 10.4891 15.9702 33.3704 -173.711 -11.2549 -181.438
lowerback -9.65994 -2.54704 -5.53135
upperback 2.78017 -2.80545 1.29063
thorax 8.74907 -1.70176 4.00918
lowerneck 0.512628 -3.72762 -4.46114
upperneck -8.34012 -4.88557 9.80884
head -2.419 -2.76379 4.16986
rclavicle 1.65737e-014 -2.5842e-015
rhumerus -33.645 -25.6738 -75.0249
rradius 23.7987
rwrist 36.1237
rhand -5.84332 -9.08064
rfingers 7.12502
rthumb 19.983 -38.0731
lclavicle 1.65737e-014 -2.5842e-015
lhumerus -23.1787 5.68627 88.899
lradius 22.8111
lwrist -26.616
lhand -7.76648 9.26208
lfingers 7.12502
lthumb 18.1335 38.4368
rfemur -29.9048 -2.15275 13.2527
rtibia 24.87
rfoot -10.9221 -1.46418
rtoes 42.5444
lfemur -7.18924 -0.243112 -23.6492
ltibia 19.7825
lfoot -14.5666 -6.28277
ltoes -1.99922
58
root 10.4959 15.972 33.348 -173.763 -11.1476 -181.317
lowerback -9.55333 -2.50542 -5.36594
upperback 2.71922 -2.77748 1.29332
thorax 8.60752 -1.67448 3.92811
lowerneck 0.542559 -3.70642 -4.34313
upperneck -8.21612 -4.85638 9.8898
head -2.38602 -2.75366 4.17245
rclavicle -7.47927e-015 -3.57812e-015
rhumerus -33.9081 -25.782 -74.9341
rradius 23.8542
rwrist 36.2403
rhand -5.90548 -9.12026
rfingers 7.12502
rthumb 19.9232 -38.119
lclavicle -7.47927e-015 -3.57812e-015
lhumerus -23.3222 5.83484 88.8582
lradius 22.589
lwrist -26.8328
lhand -7.76187 9.27507
lfingers 7.12502
lthumb 18.138 38.4494
rfemur -29.8681 -2.23742 13.5155
rtibia 24.9507
rfoot -10.925 -1.31048
rtoes 42.3519
lfemur -6.96811 -0.0501132 -23.4757
ltibia 19.5965
lfoot -14.5227 -6.37001
ltoes -2.4439
